<svg width="44" height="50" viewBox="0 0 44 50" fill="none" xmlns="http://www.w3.org/2000/svg">
<path d="M31.7645 49.3931C33.8112 49.3931 35.4704 47.572 35.4704 45.3255C35.4704 43.079 33.8112 41.2578 31.7645 41.2578C29.7178 41.2578 28.0586 43.079 28.0586 45.3255C28.0586 47.572 29.7178 49.3931 31.7645 49.3931Z" fill="white"/>
<path d="M14.8236 49.3931C16.8703 49.3931 18.5294 47.572 18.5294 45.3255C18.5294 43.079 16.8703 41.2578 14.8236 41.2578C12.7769 41.2578 11.1177 43.079 11.1177 45.3255C11.1177 47.572 12.7769 49.3931 14.8236 49.3931Z" fill="white"/>
<path d="M7.60235 6.25258L7.17882 11.9473C7.09412 13.0398 7.87765 13.9463 8.87294 13.9463H41.2941C42.1835 13.9463 42.9247 13.2025 42.9882 12.2262C43.2635 8.11209 40.4047 4.76498 36.6565 4.76498H10.6306C10.4188 3.74225 9.99529 2.76601 9.33882 1.95248C8.28 0.720558 6.79765 0 5.27294 0H1.58824C0.72 0 0 0.790289 0 1.74329C0 2.69628 0.72 3.48657 1.58824 3.48657H5.27294C5.92941 3.48657 6.54353 3.78874 6.98824 4.3001C7.43294 4.83471 7.64471 5.53202 7.60235 6.25258Z" fill="white"/>
<path d="M40.7858 17.4326H8.301C7.41159 17.4326 6.69159 18.1764 6.60688 19.1294L5.84453 29.2405C5.54806 33.2152 8.38571 36.6088 12.0069 36.6088H35.5552C38.7317 36.6088 41.527 33.7498 41.7599 30.2632L42.4588 19.4083C42.5435 18.3391 41.7811 17.4326 40.7858 17.4326Z" fill="white"/>
</svg>
