<svg width="24" height="24" viewBox="0 0 24 24" fill="none" xmlns="http://www.w3.org/2000/svg">
<path d="M17.4996 8.99899C16.6044 8.99884 15.7232 9.22044 14.9346 9.644C14.8626 9.45433 14.7345 9.29106 14.5675 9.17585C14.4005 9.06065 14.2025 8.99897 13.9996 8.99899H9.99957C9.73436 8.99899 9.48 9.10435 9.29247 9.29189C9.10493 9.47942 8.99957 9.73378 8.99957 9.99899V21.999C8.99957 22.2642 9.10493 22.5186 9.29247 22.7061C9.48 22.8936 9.73436 22.999 9.99957 22.999H13.9996C14.2648 22.999 14.5191 22.8936 14.7067 22.7061C14.8942 22.5186 14.9996 22.2642 14.9996 21.999V16.499C14.9996 16.2338 15.1049 15.9794 15.2925 15.7919C15.48 15.6044 15.7344 15.499 15.9996 15.499C16.2648 15.499 16.5191 15.6044 16.7067 15.7919C16.8942 15.9794 16.9996 16.2338 16.9996 16.499V21.999C16.9996 22.2642 17.1049 22.5186 17.2925 22.7061C17.48 22.8936 17.7344 22.999 17.9996 22.999H21.9996C22.2648 22.999 22.5191 22.8936 22.7067 22.7061C22.8942 22.5186 22.9996 22.2642 22.9996 21.999V14.499C22.9977 13.0409 22.4177 11.643 21.3866 10.612C20.3556 9.5809 18.9577 9.00085 17.4996 8.99899ZM20.9996 20.999H18.9996V16.499C18.9996 15.7033 18.6835 14.9403 18.1209 14.3777C17.5583 13.8151 16.7952 13.499 15.9996 13.499C15.2039 13.499 14.4409 13.8151 13.8783 14.3777C13.3156 14.9403 12.9996 15.7033 12.9996 16.499V20.999H10.9996V10.999H12.9996V11.702C12.9995 11.9093 13.0638 12.1115 13.1836 12.2806C13.3034 12.4497 13.4729 12.5774 13.6684 12.646C13.864 12.7147 14.0761 12.7208 14.2753 12.6637C14.4746 12.6065 14.6511 12.4889 14.7806 12.327C15.2295 11.7571 15.8452 11.3416 16.5417 11.1385C17.2381 10.9355 17.9806 10.9549 18.6655 11.1942C19.3504 11.4335 19.9434 11.8807 20.3619 12.4734C20.7803 13.066 21.0033 13.7745 20.9996 14.5V20.999ZM6.99957 8.99899H2.99957C2.73436 8.99899 2.48 9.10435 2.29247 9.29189C2.10493 9.47942 1.99957 9.73378 1.99957 9.99899V21.999C1.99957 22.2642 2.10493 22.5186 2.29247 22.7061C2.48 22.8936 2.73436 22.999 2.99957 22.999H6.99957C7.26479 22.999 7.51914 22.8936 7.70668 22.7061C7.89422 22.5186 7.99957 22.2642 7.99957 21.999V9.99899C7.99957 9.73378 7.89422 9.47942 7.70668 9.29189C7.51914 9.10435 7.26479 8.99899 6.99957 8.99899ZM5.99957 20.999H3.99957V10.999H5.99957V20.999ZM5.01457 1.542C4.57667 1.51531 4.13791 1.57804 3.72502 1.72635C3.31213 1.87467 2.93374 2.10546 2.6129 2.40469C2.29206 2.70392 2.03548 3.06532 1.85878 3.46688C1.68208 3.86844 1.58896 4.30177 1.58509 4.74047C1.58121 5.17918 1.66667 5.61408 1.83625 6.0187C2.00584 6.42332 2.256 6.78919 2.57151 7.09403C2.88701 7.39888 3.26127 7.63632 3.67147 7.7919C4.08168 7.94748 4.51926 8.01794 4.95758 7.99899H4.98557C5.42373 8.02403 5.8624 7.95959 6.27484 7.80961C6.68729 7.65962 7.06488 7.42724 7.38461 7.1266C7.70435 6.82597 7.95952 6.46339 8.13459 6.06095C8.30967 5.65851 8.40097 5.22464 8.40294 4.78578C8.40491 4.34691 8.31751 3.91224 8.14606 3.50824C7.97461 3.10425 7.7227 2.73939 7.40568 2.4359C7.08866 2.13241 6.71317 1.89664 6.30209 1.74296C5.89101 1.58928 5.45294 1.5209 5.01457 1.542ZM4.98557 5.99899H4.95758C4.78462 6.02011 4.60915 6.004 4.44293 5.95173C4.27671 5.89946 4.12359 5.81226 3.99384 5.69596C3.8641 5.57966 3.76072 5.43696 3.69065 5.27743C3.62058 5.11789 3.58544 4.94522 3.58757 4.77099C3.58757 4.02399 4.14757 3.542 5.01457 3.542C5.18919 3.51902 5.36669 3.53368 5.53517 3.585C5.70364 3.63632 5.85918 3.7231 5.99133 3.83953C6.12347 3.95595 6.22917 4.09931 6.30131 4.25997C6.37345 4.42064 6.41037 4.59488 6.40957 4.77099C6.40957 5.51699 5.85057 5.99899 4.98557 5.99899Z" fill="black"/>
</svg>
